<svg version="1.1" width="298.5" height="84.6" viewBox="0 0 298.5 84.6" xmlns="http://www.w3.org/2000/svg" xmlns:xlink="http://www.w3.org/1999/xlink" overflow="hidden"><defs></defs><path d=" M 288 84.6 L 10.5 84.6 C 4.7 84.6 0 79.9 0 74 L 0 70.1 C 0 31.4 31.4 0 70.1 0 L 228.3 0 C 267 0 298.4 31.4 298.4 70.1 L 298.4 74 C 298.5 79.9 293.8 84.6 288 84.6 Z" fill="#F4C35A"/><path d=" M 73.9 29.2 C 73.9 29.2 77.8 28.2 78.2 36.9 C 78.2 36.9 71.6 32.8 73.9 29.2 Z" fill="#FFFFFF"/><path d=" M 119.6 58.8 C 119.6 58.8 123.5 57.8 123.9 66.5 C 123.9 66.5 117.3 62.4 119.6 58.8 Z" fill="#FFFFFF"/><path d=" M 33.4 51.2 C 33.4 51.2 37.3 50.2 37.7 58.9 C 37.7 58.9 31.1 54.8 33.4 51.2 Z" fill="#FFFFFF"/><path d=" M 130.8 16.1 C 130.8 16.1 133.7 18.9 126.5 23.8 C 126.5 23.8 126.5 16 130.8 16.1 Z" fill="#FFFFFF"/><path d=" M 189.8 51.4 C 189.8 51.4 193.6 50.1 194.7 58.8 C 194.7 58.7 187.8 55.2 189.8 51.4 Z" fill="#FFFFFF"/><path d=" M 261.5 47.7 C 261.5 47.7 265.3 46.4 266.4 55.1 C 266.4 55 259.5 51.5 261.5 47.7 Z" fill="#FFFFFF"/><path d=" M 218.4 19.8 C 218.4 19.8 220.9 22.9 213.2 26.9 C 213.2 26.9 214.2 19.2 218.4 19.8 Z" fill="#FFFFFF"/></svg>